
        <svg xmlns="http://www.w3.org/2000/svg" xmlns:xlink="http://www.w3.org/1999/xlink" version="1.1" width="3190.4761904761904" height="1287.6190476190477" viewBox="0 0 3190.4761904761904 1287.6190476190477">
			
			<g transform="scale(9.523809523809524) translate(10, 10)">
				<defs id="SvgjsDefs1357"/><g id="SvgjsG1358" featureKey="symbolFeature-0" transform="matrix(1.282789707183838,0,0,1.282789707183838,-26.206080151044628,-6.763355842657092)" fill="#fff"><polygon xmlns="http://www.w3.org/2000/svg" points="38.2549362,40.6132126 36.0583801,48.7295647 44.4317093,48.0440788 "/><rect xmlns="http://www.w3.org/2000/svg" x="54.3803253" y="3.6583424" transform="matrix(0.6392117 0.7690308 -0.7690308 0.6392117 42.9711609 -38.886219)" width="17.0976219" height="45.3913841"/><polygon xmlns="http://www.w3.org/2000/svg" points="30.2069702,68.7853775 48.0043716,57.2097015 50.1891022,55.7886467 47.7255363,55.3441963 31.0839844,52.3428421   44.8651772,56.5901756 24.2783337,67.6909256 20.4289761,69.7664871 24.6541729,71.437767 45.2117767,79.5691605   20.4612541,85.633667 23.1904202,95.0766602 57.4343567,83.6362305 67.7759933,80.1808548 57.6113472,77.0979843 "/></g><g id="SvgjsG1359" featureKey="nameFeature-0" transform="matrix(0.5004139542579651,0,0,0.5004139542579651,103.19488864875085,29.608157035987322)" fill="#fff"><path d="M37.04 38.68 c0.32 0.04 0.08 1.32 -0.2 1.32 l-10.12 0 c-0.28 0 -0.48 -1.28 -0.24 -1.32 c1.6 -0.24 2.88 -1 2.76 -3.6 l-0.72 -13.88 l-6.76 13.64 c-0.76 1.6 -1.44 3.4 -1.56 4.08 c-0.08 0.48 -0.84 0.72 -1.44 0.72 s-0.96 -0.24 -1.2 -0.72 l-9.36 -17.8 l-0.6 13.96 c-0.12 2.76 1.4 3.44 2.76 3.6 c0.32 0.04 0.08 1.32 -0.24 1.32 l-8.12 0 c-0.32 0 -0.56 -1.28 -0.24 -1.32 c1.72 -0.2 3.2 -0.8 3.36 -3.6 l1.24 -23.04 c0.04 -0.64 1.48 -0.68 1.84 0 l11.64 21.84 l10.8 -21.84 c0.32 -0.68 1.8 -0.64 1.84 0.04 l1.28 23 c0.12 2.8 1.56 3.4 3.28 3.6 z M60.476000000000006 40.64 c-6.72 0 -15.84 -3.92 -15.84 -14.16 c0 -6.92 4.28 -15.12 15.4 -15.12 c4.6 0 8.64 1.44 8.16 2.84 l-0.52 1.48 c-1.32 4.08 -3.04 -1.24 -10.04 -1.24 c-5.76 0 -8.72 3.72 -8.72 9.64 c0 8.96 6.8 12.88 12.48 12.88 c0.68 0 4.16 -0.56 6.44 -2 c0.32 -0.2 1.12 0.68 0.88 1.04 c-1.72 2.52 -7.04 4.64 -8.24 4.64 z M102.43200000000002 40.4 c-0.64 0 -1 -0.28 -1.44 -0.76 l-19.12 -20.28 l0 15.64 c0 2.68 1.6 3.16 3.8 3.68 c0.32 0.08 0.16 1.32 -0.24 1.32 l-9.28 0 c-0.32 0 -0.56 -1.2 -0.2 -1.32 c1.76 -0.52 3.32 -0.92 3.32 -3.68 l0 -15.68 c0 -2.72 -0.4 -4.2 -1.56 -5.64 c-0.32 -0.4 -0.64 -0.72 -0.64 -0.84 c0 -0.36 0.24 -0.84 0.76 -0.84 l2.88 0 c0.4 0 0.68 0.04 0.96 0.36 l18.72 20.08 l0 -15.48 c0 -2.84 -1.76 -3.16 -3.76 -3.68 c-0.32 -0.08 -0.16 -1.28 0.24 -1.28 l9.24 0 c0.36 0 0.56 1.2 0.24 1.28 c-1.8 0.52 -3.32 0.84 -3.32 3.68 l0 15.72 c0 2.56 0.08 5.48 0.48 6.96 c0.16 0.6 -0.48 0.76 -1.08 0.76 z M128.348 40.64 c-8.32 0 -14.4 -6.2 -14.4 -14.48 c0 -8.08 5.72 -14.8 14.48 -14.8 c8.36 0 14.4 6.16 14.4 14.44 c0 8.12 -5.68 14.84 -14.48 14.84 z M129.86800000000002 38.04 c3.6 0 8.52 -2.32 8.52 -10.08 c0 -8.16 -5.6 -14 -11.48 -14 c-3.6 0 -8.44 2.32 -8.44 10 c0 8.24 5.56 14.08 11.4 14.08 z M167.18400000000003 24.759999999999998 c3.68 0 7.28 2.68 7.28 7.16 c0 4.92 -4.4 8.16 -11.16 8.16 c-1.92 0 -4.24 -0.24 -7.08 -0.24 c-2.36 0 -4.32 0.04 -6.16 0.24 c-0.36 0.04 -0.56 -1.28 -0.24 -1.36 c2.32 -0.6 4.16 -0.96 4.16 -3.92 l0 -17.84 c0 -2.6 -1.68 -3.32 -3.4 -3.72 c-0.32 -0.08 -0.12 -1.36 0.2 -1.32 c1.64 0.2 3.52 0.24 4.76 0.24 c3.04 0 5.4 -0.24 7.16 -0.24 c5.2 0 9.48 2.16 9.52 6.56 c0.04 3.32 -2.36 5.52 -5.04 6.04 l0 0.24 z M161.46400000000003 13.920000000000002 c-2.24 0 -3 0.76 -3 3.04 l0 7.16 l4.2 0 c3 0 4.92 -1.4 4.92 -4.64 c0 -3.92 -2.8 -5.56 -6.12 -5.56 z M163.264 38.08 c3.8 0 6.36 -1.12 6.36 -5.32 c0 -4.64 -3.16 -6.72 -6.96 -6.72 l-4.2 0 l0 8.76 c0 2.2 1.16 3.28 4.8 3.28 z M200.9 40.24 c-2.2 -0.56 -6.32 -0.44 -10.24 -0.44 c-3.4 0 -6.44 0.08 -8.76 0.32 c-0.36 0.04 -0.76 -0.88 -0.56 -1.2 l16.44 -24.56 l-7.32 0 c-4.48 -0.04 -5.96 1.12 -7 2.4 c-0.44 0.52 -1.48 0.16 -1.24 -0.52 l1.44 -3.96 c0.24 -0.68 1 -0.64 1.48 -0.52 c2.2 0.56 6.16 0.44 9.72 0.44 c3.2 0 6.24 -0.08 8.56 -0.32 c0.36 -0.04 0.76 0.88 0.56 1.2 l-16.44 24.56 l8.04 0 c4.48 0.04 5.96 -1.12 7 -2.4 c0.44 -0.52 1.48 -0.16 1.24 0.52 l-1.44 3.96 c-0.24 0.68 -1 0.64 -1.48 0.52 z M238.056 12 c0.52 0 0.64 1.24 0.12 1.32 c-1.56 0.24 -2.92 1.36 -4.76 4.28 l-6.48 10.12 l0 7.36 c0 2.8 1.64 3.28 4.12 3.6 c0.28 0.04 0.08 1.32 -0.24 1.32 l-12.28 0 c-0.32 0 -0.52 -1.28 -0.24 -1.32 c2.64 -0.32 4.16 -0.84 4.16 -3.6 l0 -7.24 l-6.76 -10.2 c-1.88 -2.8 -3 -4.04 -4.72 -4.32 c-0.52 -0.08 -0.4 -1.32 0.12 -1.32 l10.28 0 c0.52 0 0.6 1.24 0.12 1.32 c-1.76 0.28 -2.48 1.64 -0.72 4.28 l5.2 7.72 l4.96 -7.72 c1.72 -2.64 0.72 -3.96 -1.44 -4.28 c-0.52 -0.08 -0.4 -1.32 0.12 -1.32 l8.44 0 z M250.13200000000003 11.36 c-0.56 3.12 -1.16 6.64 -1.72 9.72 c-0.12 0.68 -2.52 1.08 -2.48 0.44 c0.12 -3.04 0.2 -6.48 0.28 -9.52 c0.04 -1.12 4.12 -1.76 3.92 -0.64 z M266.168 40.64 c-3.32 0 -8.24 -1.48 -7.76 -3.2 l0.4 -1.44 c1.08 -4.08 2.36 1.96 8.96 1.96 c3.4 0 5.2 -1.68 5.2 -4.08 c0 -1.96 -1.36 -2.8 -4.08 -4.48 l-4.16 -2.56 c-4.2 -2.6 -5.88 -4.32 -5.88 -7.24 c0 -4.84 4.68 -8.24 9.72 -8.24 c3.04 0 6.88 1.32 6.44 2.68 l-0.48 1.48 c-1.16 3.76 -2.2 -1.52 -7.68 -1.52 c-2.92 0 -4.44 1.52 -4.44 3.68 c0 1.76 1.04 2.8 3.76 4.44 l4.4 2.68 c4.16 2.56 5.84 4.36 5.84 7.2 c0 4.96 -4.88 8.64 -10.24 8.64 z M312 24.759999999999998 c3.68 0 7.28 2.68 7.28 7.16 c0 4.92 -4.4 8.16 -11.16 8.16 c-1.92 0 -4.24 -0.24 -7.08 -0.24 c-2.36 0 -4.32 0.04 -6.16 0.24 c-0.36 0.04 -0.56 -1.28 -0.24 -1.36 c2.32 -0.6 4.16 -0.96 4.16 -3.92 l0 -17.84 c0 -2.6 -1.68 -3.32 -3.4 -3.72 c-0.32 -0.08 -0.12 -1.36 0.2 -1.32 c1.64 0.2 3.52 0.24 4.76 0.24 c3.04 0 5.4 -0.24 7.16 -0.24 c5.2 0 9.48 2.16 9.52 6.56 c0.04 3.32 -2.36 5.52 -5.04 6.04 l0 0.24 z M306.28000000000003 13.920000000000002 c-2.24 0 -3 0.76 -3 3.04 l0 7.16 l4.2 0 c3 0 4.92 -1.4 4.92 -4.64 c0 -3.92 -2.8 -5.56 -6.12 -5.56 z M308.08000000000004 38.08 c3.8 0 6.36 -1.12 6.36 -5.32 c0 -4.64 -3.16 -6.72 -6.96 -6.72 l-4.2 0 l0 8.76 c0 2.2 1.16 3.28 4.8 3.28 z M326.516 40.08 c-0.4 0.04 -0.56 -1.28 -0.24 -1.36 c2.32 -0.6 4.16 -0.96 4.16 -3.92 l0 -17.92 c0 -2.8 -1.68 -3.36 -3.4 -3.6 c-0.32 -0.04 -0.08 -1.28 0.2 -1.28 l10.76 0 c0.32 0 0.52 1.24 0.24 1.28 c-1.72 0.24 -3.32 0.8 -3.32 3.6 l0 17.92 c0 2.28 1 3.08 4.4 3.08 c6.24 0 8.48 -2.68 9.44 -4.28 c0.32 -0.48 1.32 -0.28 1.32 0.4 c0 2.12 -1.68 6.08 -4.16 6.08 c-2.12 -0.12 -4.48 -0.24 -7.84 -0.24 c-3.72 0 -7.88 -0.12 -11.56 0.24 z M371.51200000000006 40.64 c-8.32 0 -14.4 -6.2 -14.4 -14.48 c0 -8.08 5.72 -14.8 14.48 -14.8 c8.36 0 14.4 6.16 14.4 14.44 c0 8.12 -5.68 14.84 -14.48 14.84 z M373.03200000000004 38.04 c3.6 0 8.52 -2.32 8.52 -10.08 c0 -8.16 -5.6 -14 -11.48 -14 c-3.6 0 -8.44 2.32 -8.44 10 c0 8.24 5.56 14.08 11.4 14.08 z M411.30800000000005 40.64 c-9.56 0 -17.28 -4.68 -17.28 -14.08 c0 -7.68 5.28 -15.2 16.32 -15.2 c4.84 0 8.6 1.44 8.16 2.76 l-0.56 1.6 c-1.32 3.8 -3.08 -1.24 -10.4 -1.24 c-6.2 0 -9.24 3.64 -9.24 9.8 c0 9.2 6.36 13.88 11.84 13.88 c2.88 0 4.12 -1.4 4.12 -3.76 l0 -0.72 c0 -3.08 -1.32 -4.04 -4.56 -4.56 c-0.52 -0.08 -0.08 -1.48 0.8 -1.48 l10.08 0 c1.08 0 0.64 1.36 0.2 1.48 c-1.44 0.4 -2.4 1.24 -2.4 3.84 l0 1.4 c0 1 0.04 1.8 0.8 3.08 c-2.4 1.32 -6.88 3.2 -7.88 3.2 z"/></g><g id="SvgjsG1360" featureKey="sloganFeature-0" transform="matrix(0.9220348000526428,0,0,0.9220348000526428,104.6580316225446,55.34290931847488)" fill="#fff"><path d="M2.54 18.78 l0 -10.78 c0 -0.42 0.32 -0.64 0.64 -0.64 s0.66 0.22 0.66 0.64 l0 10.78 c0 0.86 -1.3 0.86 -1.3 0 z M14.472000000000001 7.359999999999999 l6.04 0 c0.42 0 0.62 0.34 0.62 0.68 s-0.2 0.66 -0.62 0.66 l-2.28 0 l0 10.06 c0 0.42 -0.34 0.64 -0.68 0.64 s-0.66 -0.22 -0.66 -0.64 l0 -10.06 l-2.42 0 c-0.42 0 -0.62 -0.32 -0.62 -0.66 s0.2 -0.68 0.62 -0.68 z M51.376000000000005 10.28 l0 2.5 c0 2.38 -1.24 3.14 -3.34 3.14 l-1.86 0 l0 2.84 c0 0.42 -0.34 0.64 -0.66 0.64 c-0.34 0 -0.66 -0.22 -0.66 -0.64 l0 -10.74 c0 -0.38 0.32 -0.66 0.66 -0.66 l2.7 0 c1.1 0 3.16 0.22 3.16 2.92 z M48.21600000000001 8.7 l-2.04 0 l0 5.86 l1.86 0 c0.98 0 2.04 -0.24 2.02 -1.8 l-0.02 -2.48 c0 -0.48 -0.08 -1.58 -1.82 -1.58 z M61.408 15.86 l0 -7.86 c0 -0.42 0.34 -0.64 0.66 -0.64 c0.34 0 0.66 0.22 0.66 0.64 l0 7.86 c0 1.44 0.98 2.3 2.34 2.3 l0.5 0 c1.4 0 2.36 -0.98 2.36 -2.3 l0 -7.86 c0 -0.42 0.32 -0.64 0.66 -0.64 c0.32 0 0.66 0.22 0.66 0.64 l0 7.86 c0 2.06 -1.46 3.64 -3.68 3.64 l-0.5 0 c-2.22 0 -3.66 -1.54 -3.66 -3.64 z M80.10000000000001 18.76 l0 -10.76 c0 -0.42 0.32 -0.64 0.64 -0.64 s0.66 0.22 0.66 0.64 l0 10.06 l3.98 0 c0.44 0 0.68 0.34 0.68 0.68 s-0.24 0.66 -0.68 0.66 l-4.62 0 c-0.4 0 -0.66 -0.32 -0.66 -0.64 z M96.01200000000001 18.76 l0 -10.76 c0 -0.42 0.32 -0.64 0.64 -0.64 s0.66 0.22 0.66 0.64 l0 10.06 l3.98 0 c0.44 0 0.68 0.34 0.68 0.68 s-0.24 0.66 -0.68 0.66 l-4.62 0 c-0.4 0 -0.66 -0.32 -0.66 -0.64 z M111.64400000000002 17.68 c-0.44 -0.82 0.68 -1.42 1.2 -0.6 c0.26 0.42 1.04 1.14 2.28 1.14 c0.52 0 1.82 -0.38 2 -1.86 c0.12 -0.9 -0.74 -1.78 -2.22 -2.52 c-2.08 -0.98 -3.66 -1.84 -3.66 -3.56 c0 -2.04 1.72 -3 3.56 -3 c1.66 0 2.58 1.02 2.9 1.54 c0.46 0.74 -0.54 1.46 -1.1 0.74 c-0.28 -0.36 -0.82 -0.96 -1.8 -0.96 c-1.1 0 -2.24 0.52 -2.24 1.68 c0 0.92 1.02 1.44 2.54 2.16 c1.78 0.88 3.64 1.74 3.36 4.08 c-0.22 1.84 -1.62 3.02 -3.34 3.02 c-1.3 0 -2.9 -0.7 -3.48 -1.86 z M148.08800000000002 8.3 l-2.48 5.14 l0 5.32 c0 0.44 -0.32 0.64 -0.64 0.64 c-0.34 0 -0.66 -0.22 -0.66 -0.64 l0 -5.32 l-2.54 -5.12 c-0.42 -0.88 0.8 -1.4 1.22 -0.56 l1.98 3.96 l1.9 -3.94 c0.44 -0.92 1.64 -0.34 1.22 0.52 z M158.4 15.86 l0 -4.96 c0 -2.4 1.24 -3.68 3.64 -3.68 l0.52 0 c2.38 0 3.64 1.28 3.64 3.68 l0 4.96 c0 2.2 -1.46 3.64 -3.64 3.64 l-0.52 0 c-2.22 0 -3.64 -1.46 -3.64 -3.64 z M162.04 18.16 l0.52 0 c1.44 0 2.3 -0.9 2.3 -2.3 l0 -4.96 c0 -1.56 -0.76 -2.36 -2.3 -2.36 l-0.52 0 c-1.52 0 -2.36 0.82 -2.36 2.36 l0 4.96 c0 1.46 0.92 2.3 2.36 2.3 z M176.892 15.86 l0 -7.86 c0 -0.42 0.34 -0.64 0.66 -0.64 c0.34 0 0.66 0.22 0.66 0.64 l0 7.86 c0 1.44 0.98 2.3 2.34 2.3 l0.5 0 c1.4 0 2.36 -0.98 2.36 -2.3 l0 -7.86 c0 -0.42 0.32 -0.64 0.66 -0.64 c0.32 0 0.66 0.22 0.66 0.64 l0 7.86 c0 2.06 -1.46 3.64 -3.68 3.64 l-0.5 0 c-2.22 0 -3.66 -1.54 -3.66 -3.64 z M209.05599999999998 18.78 l0 -10.78 c0 -0.42 0.32 -0.64 0.64 -0.64 s0.66 0.22 0.66 0.64 l0 10.78 c0 0.86 -1.3 0.86 -1.3 0 z M228.128 8 l0 10.76 c0 0.42 -0.32 0.64 -0.64 0.64 c-0.24 0 -0.56 -0.18 -0.7 -0.44 c-1.5 -2.94 -2.62 -5.2 -4.12 -8.16 l0 7.96 c0 0.42 -0.32 0.64 -0.66 0.64 c-0.32 0 -0.66 -0.22 -0.66 -0.64 l0 -10.76 c0 -0.7 1 -0.74 1.22 -0.32 l4.22 8.34 l0 -8.02 c0 -0.42 0.32 -0.64 0.66 -0.64 s0.68 0.22 0.68 0.64 z"/></g>
			</g>
		</svg>
	